<?xml version="1.0" encoding="UTF-8" standalone="no"?><!DOCTYPE svg PUBLIC "-//W3C//DTD SVG 1.1//EN" "http://www.w3.org/Graphics/SVG/1.1/DTD/svg11.dtd"><svg width="2000px" height="2000px" version="1.1" xmlns="http://www.w3.org/2000/svg" xmlns:xlink="http://www.w3.org/1999/xlink" xml:space="preserve" xmlns:serif="http://www.serif.com/" style="fill-rule:evenodd;clip-rule:evenodd;stroke-linecap:round;stroke-linejoin:round;stroke-miterlimit:2;"><g id="AdressBar" transform="matrix(1,0,0,1,2050,0)"><rect x="-2050" y="0" width="2000" height="2000" style="fill:none;"/><g transform="matrix(5.917284,0,0,5.882947,-7976.835225,-6604.119493)"><g transform="matrix(0.201251,0.245614,-0.250835,0.197062,1181.115757,1199.410914)"><path d="M72,55C136,-2 226,-11 295,22C407,75 423,185 414,240C404,299 391,315 378,333C361,359 328,380 326,380C326,380 253,436 155,409C7,369 -58,175 72,55L306,109C304,108 293,98 286,93C184,28 68,108 69,209C70,309 164,364 239,346C357,317 380,178 306,109L72,55Z" style="fill:rgb(85,131,243);fill-opacity:1;"/></g><g transform="matrix(0.673935,-1.421959,1.452184,0.659908,-508.38878,1970.143551)"><path d="M822,784C822,784 836,795 849,784" style="fill:none;stroke:rgb(85,131,243);stroke-width:3px;"/></g></g></g></svg>