<?xml version="1.0" encoding="UTF-8" standalone="no"?><!DOCTYPE svg PUBLIC "-//W3C//DTD SVG 1.1//EN" "http://www.w3.org/Graphics/SVG/1.1/DTD/svg11.dtd"><svg width="2000px" height="841px" version="1.1" xmlns="http://www.w3.org/2000/svg" xmlns:xlink="http://www.w3.org/1999/xlink" xml:space="preserve" xmlns:serif="http://www.serif.com/" style="fill-rule:evenodd;clip-rule:evenodd;stroke-linecap:round;stroke-linejoin:round;stroke-miterlimit:2;"><g transform="matrix(1,0,0,1,-4100,-577.759563)"><g id="Full-Logo" serif:id="Full Logo" transform="matrix(1,0,0,0.420457,4100,577.759563)"><rect x="0" y="0" width="2000" height="2000" style="fill:none;"/><g transform="matrix(1.052364,0,0,2.502905,-52.151483,-1498.663407)"><g><g transform="matrix(6.553956,0,0,6.553956,-2420.829252,-3847.320226)"><g transform="matrix(1.340657,0,0,1.340657,-147.015819,-239.649696)"><path d="M400,740C402,734 413,710 418,704C421,701 429,700 431,704C433,710 435,734 434,740C433,743 426,741 424,740C423,738 426,734 424,733C422,732 416,732 413,733C411,734 412,738 410,740C408,741 400,743 400,740ZM417,725C417,727 423,727 424,725C425,724 423,711 423,710C424,710 416,724 417,725Z" style="fill-rule:nonzero;"/></g><g transform="matrix(1.340657,0,0,1.340657,-147.015819,-239.649696)"><path d="M449,740C448,740 446,740 444,739C443,738 441,737 440,735C440,734 439,731 439,729C439,727 439,725 440,723C440,722 441,720 442,718C443,717 444,716 445,715C446,714 447,713 449,712C450,712 452,711 454,711C456,711 457,712 459,712C460,712 461,713 463,713L460,720C459,720 458,720 457,719C456,719 455,719 454,719C453,719 453,719 452,720C451,720 450,721 450,722C450,723 449,724 449,725C449,726 449,727 449,728C449,729 449,730 449,731C449,731 450,732 450,732C450,732 451,732 452,732C453,732 454,732 455,732C456,732 457,731 459,730L459,738C457,739 456,739 454,740C453,740 451,740 449,740Z" style="fill-rule:nonzero;"/></g><g transform="matrix(1.340657,0,0,1.340657,-147.015819,-239.649696)"><path d="M472,740C470,740 468,740 467,739C466,738 465,736 465,733C465,733 465,732 465,731C465,730 465,730 465,729L468,719L464,719L465,714L470,712L473,706L480,706L479,712L486,712L484,719L477,719L475,728C475,729 475,729 475,730C475,730 475,731 475,731C475,732 475,732 475,732C475,732 476,732 476,732C477,732 477,732 478,732C479,732 480,732 481,731L481,738C480,739 478,739 477,740C476,740 474,740 472,740Z" style="fill-rule:nonzero;"/></g><g transform="matrix(1.340657,0,0,1.340657,-147.015819,-239.649696)"><path d="M488,737C489,733 492,717 493,712C493,711 499,713 499,713C499,718 495,734 494,738C494,741 487,740 488,737Z" style="fill-rule:nonzero;"/></g><g transform="matrix(1.340657,0,0,1.340657,-147.015819,-239.649696)"><path d="M507,740L503,712L513,712L513,726C513,726 513,727 513,727C513,728 513,728 513,728C513,729 513,729 513,730L514,730C514,729 514,729 514,728C514,728 514,728 514,727C515,727 515,727 515,726L521,712L531,712L517,740L507,740Z" style="fill-rule:nonzero;"/></g><g transform="matrix(1.340657,0,0,1.340657,-147.015819,-239.649696)"><path d="M529,740C529,740 532,717 535,712C536,709 544,709 544,712C545,717 539,740 539,740L529,740ZM541,709C539,709 538,709 537,709C537,708 536,707 536,706C536,705 536,704 537,703C537,702 538,702 539,701C539,701 540,701 542,701C543,701 544,701 545,702C546,702 546,703 546,704C546,706 546,707 545,708C544,709 543,709 541,709Z" style="fill-rule:nonzero;"/></g><g transform="matrix(1.340657,0,0,1.340657,-147.015819,-239.649696)"><path d="M555,740C552,740 551,740 549,739C548,738 547,736 547,733C547,733 548,732 548,731C548,730 548,730 548,729L550,719L546,719L547,714L553,712L556,706L562,706L561,712L568,712L567,719L560,719L558,728C557,729 557,729 557,730C557,730 557,731 557,731C557,732 557,732 558,732C558,732 558,732 559,732C559,732 560,732 561,732C562,732 562,732 563,731L563,738C562,739 561,739 560,740C558,740 557,740 555,740Z" style="fill-rule:nonzero;"/></g><g transform="matrix(1.340657,0,0,1.340657,-147.015819,-239.649696)"><path d="M568,752C567,752 567,752 566,751C565,751 565,751 565,751L565,744C565,744 565,744 566,744C566,744 567,744 567,744C569,744 570,744 571,743C572,742 572,742 573,740L574,739L570,712L579,712L580,725C580,725 580,726 580,726C580,727 580,727 580,728C580,728 580,729 580,729L580,729C581,729 581,728 581,728C581,727 581,727 582,726C582,725 582,725 582,725L588,712L598,712L581,743C580,745 579,747 578,748C577,749 575,750 574,751C572,751 570,752 568,752Z" style="fill-rule:nonzero;"/></g></g><g transform="matrix(3.873045,0,0,3.873045,-663.536386,-1605.729002)"><g transform="matrix(50,0,0,50,574.348723,739.60217)"></g><text x="403px" y="740px" style="font-family:'OpenSans-ExtraBoldItalic', 'Open Sans';font-weight:800;font-style:italic;font-size:50px;fill:rgb(85,131,243);">S<tspan x="432px 462px 494px 517px 543px " y="740px 740px 740px 740px 740px ">earch</tspan></text></g></g><g transform="matrix(1.004395,0,0,0.998567,-7.399241,21.165047)"><g transform="matrix(0.168531,0.210053,-0.210053,0.168531,991.932005,700.892457)"><path d="M72,55C136,-2 226,-11 295,22C407,75 423,185 414,240C404,299 391,315 378,333C361,359 328,380 326,380C326,380 253,436 155,409C7,369 -58,175 72,55L306,109C304,108 293,98 286,93C184,28 68,108 69,209C70,309 164,364 239,346C357,317 380,178 306,109L72,55Z" style="fill-opacity:1;"/></g><g transform="matrix(0.564364,-1.216082,1.216082,0.564364,-422.886204,1360.035352)"><path d="M822,784C822,784 836,795 849,784" style="fill:none;stroke:black;stroke-width:4px;"/></g></g></g></g></g></svg>