<?xml version="1.0" encoding="UTF-8" standalone="no"?><!DOCTYPE svg PUBLIC "-//W3C//DTD SVG 1.1//EN" "http://www.w3.org/Graphics/SVG/1.1/DTD/svg11.dtd"><svg width="2000px" height="2000px" version="1.1" xmlns="http://www.w3.org/2000/svg" xmlns:xlink="http://www.w3.org/1999/xlink" xml:space="preserve" xmlns:serif="http://www.serif.com/" style="fill-rule:evenodd;clip-rule:evenodd;stroke-linecap:round;stroke-linejoin:round;stroke-miterlimit:2;"><g transform="matrix(1,0,0,1,-2050,0)"><g id="Mobile-logo" transform="matrix(1,0,0,1,4100,0)"><rect x="-2050" y="0" width="2000" height="2000" style="fill:none;"/><g transform="matrix(1.31047,0,0,1.31047,301.742321,-467.220035)"><g transform="matrix(28.520631,0,0,27.92702,-13116.73449,-19057.74146)"><path d="M400,740C402,734 415,711 420,705C423,701 427,701 429,705C431,711 434,734 434,740C433,743 426,741 424,740C423,738 426,734 424,733C422,732 416,732 413,733C411,734 412,738 410,740C408,741 399,743 400,740ZM417,725C417,727 423,727 424,725C425,724 424,713 423,713C423,712 423,712 423,713C422,713 416,724 417,725Z" style="fill-rule:nonzero;"/></g><g transform="matrix(2.301549,0,0,2.288194,-3208.513387,-1415.059751)"><g transform="matrix(0.201251,0.245614,-0.250835,0.197062,1181.115757,1199.410914)"><path d="M72,55C136,-2 226,-11 295,22C407,75 423,185 414,240C404,299 391,315 378,333C361,359 328,380 326,380C326,380 253,436 155,409C7,369 -58,175 72,55L306,109C304,108 293,98 286,93C184,28 68,108 69,209C70,309 164,364 239,346C357,317 380,178 306,109L72,55Z" style="fill:rgb(85,131,243);fill-opacity:1;"/></g><g transform="matrix(0.673935,-1.421959,1.452184,0.659908,-508.38878,1970.143551)"><path d="M822,784C822,784 836,795 849,784" style="fill:none;stroke:rgb(85,131,243);stroke-width:3px;"/></g></g></g></g></g></svg>